<?xml version="1.0" encoding="utf-8"?>
<!-- Generator: Adobe Illustrator 24.3.0, SVG Export Plug-In . SVG Version: 6.00 Build 0)  -->
<svg version="1.1" id="Layer_1" xmlns="http://www.w3.org/2000/svg" xmlns:xlink="http://www.w3.org/1999/xlink" x="0px" y="0px"
	 viewBox="0 0 60 60" style="enable-background:new 0 0 60 60;" xml:space="preserve">
<style type="text/css">
	.st0{fill:#6559FF;}
	.st1{fill:#FFFFFF;}
</style>
<path class="st0" d="M30,60c16.6,0,30-13.4,30-30S46.6,0,30,0S0,13.4,0,30S13.4,60,30,60z"/>
<path class="st1" d="M44,49.1c0,0.6-0.7,1.1-1.2,0.8l-7-6H18.7c-1.4,0-2.7-1.2-2.7-2.7V15.7c0-1.5,1.2-2.7,2.7-2.7h22.6
	c1.4,0,2.7,1.2,2.7,2.7L44,49.1z"/>
<path class="st0" d="M25.3,25.9c0.9,0,1.7-0.8,1.7-1.7c0-0.9-0.8-1.7-1.7-1.7c-0.9,0-1.7,0.8-1.7,1.7C23.6,25.2,24.4,25.9,25.3,25.9
	z"/>
<path class="st0" d="M34.4,25.9c0.9,0,1.7-0.8,1.7-1.7c0-0.9-0.8-1.7-1.7-1.7c-0.9,0-1.7,0.8-1.7,1.7C32.7,25.2,33.5,25.9,34.4,25.9
	z"/>
<path class="st0" d="M34.9,32c0,2.8-2.3,5-5,5s-5-2.3-5-5c0-0.7,0.2-1.5,0.4-2h9.3C34.8,30.6,34.9,31.2,34.9,32z"/>
</svg>
